<svg xmlns="http://www.w3.org/2000/svg" viewBox="0 0 64 64" fill="none">
  <rect width="64" height="64" rx="12" fill="#0d9488"/>
  <!-- Carrosserie -->
  <path d="M10 38 L14 26 Q16 22 20 22 L28 20 Q30 19 32 19 Q34 19 36 20 L44 22 Q48 22 50 26 L54 38 L54 44 Q54 46 52 46 L12 46 Q10 46 10 44 Z" fill="#ffffff"/>
  <!-- Toit -->
  <path d="M20 22 L24 14 Q26 12 32 12 Q38 12 40 14 L44 22 Z" fill="#e2fefe"/>
  <!-- Vitre avant -->
  <path d="M32 13 L39 22 L25 22 Z" fill="#0d9488" opacity="0.4"/>
  <!-- Roue gauche -->
  <circle cx="20" cy="46" r="7" fill="#1e293b"/>
  <circle cx="20" cy="46" r="3.5" fill="#94a3b8"/>
  <!-- Roue droite -->
  <circle cx="44" cy="46" r="7" fill="#1e293b"/>
  <circle cx="44" cy="46" r="3.5" fill="#94a3b8"/>
  <!-- Phare avant -->
  <rect x="49" y="34" width="5" height="3" rx="1.5" fill="#fde68a"/>
  <!-- Phare arrière -->
  <rect x="10" y="34" width="5" height="3" rx="1.5" fill="#fca5a5"/>
</svg>
